#!OML:ASF E:\emotionWalksFemale\Project 1\Capture day 1\Session 1\Female1.ASF
:FULLY-SPECIFIED
:DEGREES
867
root 2.80864 15.511 -34.9303 171.182 62.2517 170.6
lowerback 4.30452 -1.04502 -2.42086
upperback -4.42051 -1.53442 -0.185224
thorax -6.97085 -0.611993 1.31711
lowerneck -3.97234 -7.02692 -13.4872
upperneck 11.3163 -10.1902 16.9981
head 5.61866 -4.55674 6.96286
rclavicle 9.69075e-015 -6.36111e-015
rhumerus -48.8835 7.55191 -80.3242
rradius 35.907
rwrist 14.2073
rhand -3.095 -52.388
rfingers 7.12502
rthumb 22.6228 -81.0822
lclavicle 9.69075e-015 -6.36111e-015
lhumerus -41.0755 4.77241 74.3685
lradius 54.1145
lwrist -0.134707
lhand -7.88814 -33.1057
lfingers 7.12502
lthumb 18.0165 -3.92019
rfemur -13.6662 13.1442 24.6046
rtibia 16.6539
rfoot -21.8972 -46.2147
rtoes 34.5746
lfemur 12.2277 0.617899 -22.1601
ltibia 34.192
lfoot 9.72836 13.761
ltoes -8.14125
868
root 2.94726 15.532 -34.9533 171.875 62.9053 171.602
lowerback 4.69328 -0.99721 -1.77286
upperback -4.46652 -1.42918 -0.123207
thorax -7.26194 -0.588581 1.01728
lowerneck -3.84158 -7.13509 -13.7856
upperneck 11.2541 -10.3648 17.3359
head 5.64022 -4.64261 7.1148
rclavicle -1.79403e-014 -8.34896e-015
rhumerus -48.874 7.48121 -80.2743
rradius 36.157
rwrist 14.1847
rhand -2.32542 -51.4416
rfingers 7.12502
rthumb 23.3612 -80.0439
lclavicle -1.79403e-014 -8.34896e-015
lhumerus -41.9449 5.08635 74.3392
lradius 54.0526
lwrist -0.334801
lhand -7.79784 -33.0237
lfingers 7.12502
lthumb 18.1033 -3.84623
rfemur -12.5403 11.9109 25.7471
rtibia 15.693
rfoot -19.3866 -45.1933
rtoes 33.3061
lfemur 10.8933 1.0805 -21.0499
ltibia 37.2285
lfoot 11.335 13.0751
ltoes -1.89104
869
root 3.08361 15.5379 -34.9777 173.393 63.6231 173.253
lowerback 4.74879 -0.970986 -0.87595
upperback -4.50715 -1.3126 0.0322769
thorax -7.35588 -0.572953 0.666524
lowerneck -3.9322 -7.3127 -13.8754
upperneck 11.3272 -10.6186 17.436
head 5.73222 -4.75809 7.13661
rclavicle 3.12092e-014 -1.98785e-015
rhumerus -48.2855 6.76927 -79.962
rradius 35.8193
rwrist 14.8415
rhand -2.00243 -50.4205
rfingers 7.12502
rthumb 23.6711 -78.983
lclavicle 3.12092e-014 -1.98785e-015
lhumerus -42.6982 5.43224 74.2914
lradius 53.86
lwrist -0.439518
lhand -7.73871 -32.9628
lfingers 7.12502
lthumb 18.1602 -3.79053
rfemur -11.4426 11.7888 27.0243
rtibia 14.5251
rfoot -19.0715 -44.7027
rtoes 34.4022
lfemur 9.35631 1.78475 -19.6185
ltibia 40.2234
lfoot 13.3458 11.6664
ltoes -2.15878
870
root 3.20034 15.5365 -34.9869 174.377 64.3771 174.509
lowerback 5.41677 -0.91563 -0.414756
upperback -4.54297 -1.19405 0.23025
thorax -7.79059 -0.531942 0.615415
lowerneck -4.04668 -7.43855 -13.8913
upperneck 11.2962 -10.7878 17.4874
head 5.77584 -4.83446 7.13493
rclavicle 1.36167e-014 1.59028e-015
rhumerus -47.7691 6.56185 -79.7864
rradius 35.5098
rwrist 15.0556
rhand -1.87621 -49.6694
rfingers 7.12502
rthumb 23.7921 -78.2162
lclavicle 1.36167e-014 1.59028e-015
lhumerus -43.3275 5.7107 74.4297
lradius 53.4357
lwrist -0.041742
lhand -8.33801 -33.0297
lfingers 7.12502
lthumb 17.5836 -3.80488
rfemur -10.1396 11.5151 28.1208
rtibia 13.0036
rfoot -17.4865 -44.1542
rtoes 34.0373
lfemur 7.75606 2.52458 -18.438
ltibia 43.2722
lfoot 15.0384 10.3628
ltoes -3.18984
871
root 3.32879 15.5423 -35.0055 175.381 65.442 175.643
lowerback 5.69196 -0.775496 0.0235646
upperback -4.56645 -0.950191 0.458517
thorax -7.9831 -0.428754 0.584679
lowerneck -4.00544 -7.48219 -14.0621
upperneck 11.1634 -10.8413 17.5814
head 5.75237 -4.87036 7.18975
rclavicle 2.36057e-014 0
rhumerus -47.3746 6.65056 -79.6233
rradius 35.5164
rwrist 15.1116
rhand -1.34276 -49.6917
rfingers 7.12502
rthumb 24.3036 -78.171
lclavicle 2.36057e-014 0
lhumerus -43.959 5.98719 74.6438
lradius 52.8829
lwrist 0.407853
lhand -8.58507 -33.2535
lfingers 7.12502
lthumb 17.3458 -4.00755
rfemur -9.05664 10.7659 29.1824
rtibia 11.4149
rfoot -11.3097 -43.7062
rtoes 26.3936
lfemur 6.24101 3.32203 -17.4437
ltibia 46.102
lfoot 15.9565 9.77495
ltoes 2.24478
